<?xml version="1.0" encoding="UTF-8" standalone="no" ?>
<!DOCTYPE svg PUBLIC "-//W3C//DTD SVG 1.1//EN" "http://www.w3.org/Graphics/SVG/1.1/DTD/svg11.dtd">
<svg xmlns="http://www.w3.org/2000/svg" xmlns:xlink="http://www.w3.org/1999/xlink" version="1.1" width="1080" height="1080" viewBox="0 0 1080 1080" xml:space="preserve">
<desc>Created with Fabric.js 5.2.4</desc>
<defs>
</defs>
<rect x="0" y="0" width="100%" height="100%" fill="transparent"></rect>
<g transform="matrix(1 0 0 1 540 540)" id="111dc7de-54db-479f-a409-fd041485c0b9"  >
<rect style="stroke: none; stroke-width: 1; stroke-dasharray: none; stroke-linecap: butt; stroke-dashoffset: 0; stroke-linejoin: miter; stroke-miterlimit: 4; fill: rgb(0,0,0); fill-opacity: 0; fill-rule: nonzero; opacity: 1;" vector-effect="non-scaling-stroke"  x="-540" y="-540" rx="0" ry="0" width="1080" height="1080" />
</g>
<g transform="matrix(1 0 0 1 540 540)" id="1a629d79-37f7-4c7a-b43b-7346fc5b438a"  >
</g>
<g transform="matrix(2.08 0 0 2.08 581.4 495.3)"  >
<g style="opacity: 1;" vector-effect="non-scaling-stroke"   >
		<g transform="matrix(1 0 0 1 8.26 16.13)"  >
<path style="stroke: none; stroke-width: 1; stroke-dasharray: none; stroke-linecap: butt; stroke-dashoffset: 0; stroke-linejoin: miter; stroke-miterlimit: 4; fill: rgb(245,245,245); fill-rule: nonzero; opacity: 1;" vector-effect="non-scaling-stroke"  transform=" translate(-149.6, -56.5)" d="M 16.5380859375 66.044921875 Q 16.513671875 65.3125 16.513671875 64.580078125 Q 16.513671875 62.28515625 16.7578125 59.9658203125 Q 17.05078125 56.8896484375 17.1484375 53.9111328125 Q 17.24609375 50.419921875 17.44140625 46.66015625 Q 17.5634765625 44.609375 17.5634765625 42.607421875 Q 17.5634765625 40.9716796875 17.490234375 39.3603515625 Q 17.734375 38.798828125 18.13720703125 38.603515625 Q 18.5400390625 38.408203125 19.150390625 38.408203125 Q 19.443359375 38.408203125 19.77294921875 38.45703125 Q 20.1025390625 38.505859375 20.3466796875 38.701171875 Q 20.6884765625 38.75 21.18896484375 38.798828125 Q 21.689453125 38.84765625 21.9580078125 39.091796875 Q 22.0556640625 39.23828125 22.45849609375 40.0927734375 Q 22.861328125 40.947265625 23.41064453125 42.16796875 Q 23.9599609375 43.388671875 24.55810546875 44.81689453125 Q 25.15625 46.2451171875 25.70556640625 47.52685546875 Q 26.2548828125 48.80859375 26.65771484375 49.78515625 Q 27.060546875 50.76171875 27.158203125 51.005859375 Q 29.453125 46.85546875 31.650390625 42.47314453125 Q 33.84765625 38.0908203125 36.4599609375 34.208984375 Q 36.7041015625 33.8671875 37.30224609375 33.70849609375 Q 37.900390625 33.5498046875 38.291015625 33.5498046875 Q 39.3408203125 33.5498046875 39.81689453125 34.05029296875 Q 40.29296875 34.55078125 40.439453125 35.33203125 Q 40.537109375 35.8203125 40.5615234375 36.3818359375 Q 40.5859375 36.6748046875 40.537109375 36.9921875 Q 40.439453125 37.8955078125 40.439453125 38.701171875 Q 40.439453125 44.3896484375 40.048828125 49.99267578125 Q 39.658203125 55.595703125 39.3408203125 61.30859375 Q 39.2919921875 62.48046875 39.2919921875 63.75 Q 39.2919921875 65.01953125 39.3408203125 66.38671875 Q 39.365234375 66.875 39.365234375 67.3388671875 Q 39.365234375 69.4873046875 38.9990234375 71.3427734375 Q 38.6572265625 71.904296875 37.8759765625 72.05078125 Q 37.0947265625 72.197265625 36.5576171875 72.197265625 Q 35.41015625 72.197265625 34.3603515625 71.66015625 L 34.091796875 71.3427734375 L 33.994140625 70.9521484375 Q 33.994140625 70.9521484375 33.9453125 70.5615234375 Q 33.9453125 67.021484375 34.20166015625 63.4326171875 Q 34.4580078125 59.84375 34.775390625 56.26708984375 Q 35.0927734375 52.6904296875 35.44677734375 49.1259765625 Q 35.80078125 45.5615234375 36.044921875 41.9970703125 Q 34.6044921875 44.3896484375 33.24951171875 46.86767578125 Q 31.89453125 49.345703125 30.6982421875 51.9091796875 Q 30.2587890625 52.91015625 29.85595703125 54.0576171875 Q 29.453125 55.205078125 28.8916015625 56.1083984375 Q 28.5986328125 56.5478515625 27.90283203125 56.6455078125 Q 27.20703125 56.7431640625 26.6943359375 56.7431640625 Q 26.2060546875 56.7431640625 25.68115234375 56.572265625 Q 25.15625 56.4013671875 24.9609375 55.83984375 Q 24.0576171875 53.0810546875 23.0322265625 50.4443359375 Q 22.0068359375 47.8076171875 20.95703125 45.09765625 Q 20.95703125 46.904296875 21.0302734375 49.77294921875 Q 21.103515625 52.6416015625 21.103515625 55.7177734375 Q 21.103515625 58.7939453125 21.005859375 61.6015625 Q 20.908203125 64.4091796875 20.5419921875 66.044921875 Q 20.4443359375 66.6552734375 19.74853515625 66.8017578125 Q 19.052734375 66.9482421875 18.5400390625 66.9482421875 Q 18.1494140625 66.9482421875 17.79541015625 66.8994140625 Q 17.44140625 66.8505859375 17.099609375 66.7041015625 z M 45.045654296875 61.357421875 Q 45.045654296875 59.9658203125 45.399658203125 58.48876953125 Q 45.753662109375 57.01171875 46.522705078125 55.82763671875 Q 47.291748046875 54.6435546875 48.463623046875 53.89892578125 Q 49.635498046875 53.154296875 51.295654296875 53.154296875 Q 52.540771484375 53.154296875 53.920166015625 53.58154296875 Q 55.299560546875 54.0087890625 56.447021484375 54.80224609375 Q 57.594482421875 55.595703125 58.314697265625 56.7431640625 Q 59.034912109375 57.890625 59.034912109375 59.306640625 Q 59.034912109375 61.015625 58.412353515625 62.5537109375 Q 57.789794921875 64.091796875 56.666748046875 65.30029296875 Q 55.543701171875 66.5087890625 54.042236328125 67.20458984375 Q 52.540771484375 67.900390625 50.782958984375 67.900390625 Q 49.342529296875 67.900390625 48.268310546875 67.37548828125 Q 47.194091796875 66.8505859375 46.473876953125 65.9716796875 Q 45.753662109375 65.0927734375 45.399658203125 63.896484375 Q 45.045654296875 62.7001953125 45.045654296875 61.357421875 z M 48.634521484375 61.30859375 Q 48.634521484375 61.748046875 48.768798828125 62.6025390625 Q 48.903076171875 63.45703125 49.171630859375 64.27490234375 Q 49.440185546875 65.0927734375 49.867431640625 65.69091796875 Q 50.294677734375 66.2890625 50.905029296875 66.240234375 Q 52.198974609375 66.09375 53.041259765625 65.39794921875 Q 53.883544921875 64.7021484375 54.408447265625 63.701171875 Q 54.933349609375 62.7001953125 55.140869140625 61.5283203125 Q 55.348388671875 60.3564453125 55.348388671875 59.306640625 Q 55.348388671875 57.9638671875 54.823486328125 57.060546875 Q 54.298583984375 56.1572265625 53.102294921875 55.595703125 Q 53.102294921875 55.64453125 53.151123046875 55.64453125 Q 53.199951171875 55.64453125 53.199951171875 55.595703125 L 52.589599609375 55.44921875 Q 52.345458984375 55.3515625 51.991455078125 55.2294921875 Q 51.637451171875 55.107421875 51.295654296875 54.6923828125 Q 50.343505859375 55.0341796875 49.818603515625 55.5712890625 Q 49.293701171875 56.1083984375 49.025146484375 56.87744140625 Q 48.756591796875 57.646484375 48.695556640625 58.720703125 Q 48.634521484375 59.794921875 48.634521484375 61.30859375 z M 62.54248046875 51.8115234375 Q 62.54248046875 51.6162109375 62.7744140625 51.45751953125 Q 63.00634765625 51.298828125 63.29931640625 51.2255859375 Q 63.59228515625 51.15234375 63.8974609375 51.1279296875 Q 64.20263671875 51.103515625 64.34912109375 51.103515625 Q 65.44775390625 51.103515625 66.22900390625 52.080078125 Q 67.01025390625 53.056640625 67.583984375 54.58251953125 Q 68.15771484375 56.1083984375 68.560546875 57.95166015625 Q 68.96337890625 59.794921875 69.32958984375 61.6259765625 Q 69.69580078125 63.45703125 70.0498046875 64.98291015625 Q 70.40380859375 66.5087890625 70.84326171875 67.3388671875 Q 71.60009765625 65.849609375 72.22265625 63.75 Q 72.84521484375 61.650390625 73.3701171875 59.404296875 Q 73.89501953125 57.158203125 74.2978515625 54.97314453125 Q 74.70068359375 52.7880859375 74.94482421875 51.15234375 Q 75.04248046875 50.712890625 75.55517578125 50.60302734375 Q 76.06787109375 50.4931640625 76.40966796875 50.4931640625 Q 76.97119140625 50.4931640625 77.38623046875 50.65185546875 Q 77.80126953125 50.810546875 77.80126953125 51.34765625 Q 77.80126953125 52.2509765625 77.58154296875 53.80126953125 Q 77.36181640625 55.3515625 76.9833984375 57.2802734375 Q 76.60498046875 59.208984375 76.1044921875 61.2353515625 Q 75.60400390625 63.26171875 75.0302734375 65.08056640625 Q 74.45654296875 66.8994140625 73.833984375 68.30322265625 Q 73.21142578125 69.70703125 72.60107421875 70.29296875 Q 72.30810546875 70.634765625 71.685546875 70.76904296875 Q 71.06298828125 70.9033203125 70.64794921875 70.9033203125 Q 69.20751953125 70.9033203125 68.25537109375 70.146484375 L 68.25537109375 70.1953125 Q 66.76611328125 68.8037109375 66.05810546875 66.8017578125 Q 65.35009765625 64.7998046875 65.03271484375 62.626953125 Q 64.71533203125 60.4541015625 64.458984375 58.3056640625 Q 64.20263671875 56.1572265625 63.59228515625 54.3994140625 Q 63.49462890625 54.2041015625 63.34814453125 53.82568359375 Q 63.20166015625 53.447265625 63.00634765625 53.06884765625 Q 62.81103515625 52.6904296875 62.6767578125 52.3486328125 Q 62.54248046875 52.0068359375 62.54248046875 51.8115234375 z M 81.797119140625 60.3076171875 Q 81.797119140625 58.0615234375 82.322021484375 55.90087890625 Q 82.846923828125 53.740234375 83.213134765625 51.591796875 Q 83.310791015625 51.0302734375 83.982177734375 50.89599609375 Q 84.653564453125 50.76171875 85.117431640625 50.76171875 Q 85.923095703125 50.76171875 86.411376953125 51.005859375 Q 86.606689453125 51.103515625 86.777587890625 51.2255859375 Q 86.948486328125 51.34765625 86.948486328125 51.54296875 Q 86.948486328125 53.642578125 86.447998046875 55.64453125 Q 85.947509765625 57.646484375 85.947509765625 59.892578125 Q 85.947509765625 60.6494140625 86.057373046875 61.32080078125 Q 86.167236328125 61.9921875 86.264892578125 62.6513671875 L 86.411376953125 63.359375 Q 86.411376953125 63.5546875 86.435791015625 63.701171875 Q 86.460205078125 63.84765625 86.509033203125 64.04296875 Q 86.509033203125 64.482421875 85.886474609375 64.64111328125 Q 85.263916015625 64.7998046875 84.800048828125 64.7998046875 Q 84.092041015625 64.7998046875 83.493896484375 64.51904296875 Q 82.895751953125 64.23828125 82.553955078125 63.5546875 L 82.212158203125 62.8466796875 Q 81.919189453125 62.28515625 81.919189453125 61.58935546875 Q 81.919189453125 60.8935546875 81.797119140625 60.3076171875 z M 83.359619140625 45.6103515625 L 83.359619140625 45.146484375 Q 83.359619140625 43.9990234375 83.933349609375 43.095703125 Q 84.507080078125 42.1923828125 85.654541015625 42.1923828125 Q 85.801025390625 42.1923828125 85.935302734375 42.216796875 Q 86.069580078125 42.2412109375 86.216064453125 42.2412109375 Q 86.509033203125 42.2900390625 86.985107421875 42.47314453125 Q 87.461181640625 42.65625 87.461181640625 43.046875 L 87.461181640625 43.095703125 Q 87.363525390625 43.291015625 87.339111328125 43.49853515625 Q 87.314697265625 43.7060546875 87.217041015625 43.8525390625 L 87.265869140625 43.8037109375 Q 86.972900390625 44.560546875 86.789794921875 45.0244140625 Q 86.606689453125 45.48828125 86.386962890625 45.76904296875 Q 86.167236328125 46.0498046875 85.837646484375 46.171875 Q 85.508056640625 46.2939453125 84.897705078125 46.2939453125 Q 84.800048828125 46.2939453125 84.555908203125 46.26953125 Q 84.311767578125 46.2451171875 84.031005859375 46.171875 Q 83.750244140625 46.0986328125 83.554931640625 45.9765625 Q 83.359619140625 45.8544921875 83.359619140625 45.6103515625 z M 92.4580078125 61.89453125 Q 92.4580078125 60.185546875 92.83642578125 57.8662109375 Q 93.21484375 55.546875 94.1181640625 53.4716796875 Q 95.021484375 51.396484375 96.49853515625 49.94384765625 Q 97.9755859375 48.4912109375 100.2216796875 48.4912109375 Q 102.3212890625 48.4912109375 103.37109375 49.69970703125 Q 104.4208984375 50.908203125 104.4208984375 52.958984375 Q 104.4208984375 54.3017578125 103.92041015625 55.90087890625 Q 103.419921875 57.5 102.4921875 58.92822265625 Q 101.564453125 60.3564453125 100.294921875 61.30859375 Q 99.025390625 62.2607421875 97.462890625 62.2607421875 L 96.828125 62.2119140625 Q 96.828125 62.87109375 97.0234375 63.98193359375 Q 97.21875 65.0927734375 97.59716796875 66.19140625 Q 97.9755859375 67.2900390625 98.57373046875 68.1201171875 Q 99.171875 68.9501953125 100.0263671875 68.9501953125 Q 101.271484375 68.9501953125 102.4189453125 67.94921875 Q 103.56640625 66.9482421875 104.591796875 65.7275390625 Q 105.6171875 64.5068359375 106.49609375 63.505859375 Q 107.375 62.5048828125 108.107421875 62.5048828125 Q 108.498046875 62.5048828125 108.9130859375 62.626953125 Q 109.328125 62.7490234375 109.376953125 63.310546875 Q 109.376953125 63.65234375 109.19384765625 63.8720703125 Q 109.0107421875 64.091796875 108.8642578125 64.3603515625 Q 108.107421875 65.654296875 107.21630859375 66.826171875 Q 106.3251953125 67.998046875 105.2021484375 68.9501953125 Q 104.0791015625 69.90234375 102.74853515625 70.45166015625 Q 101.41796875 71.0009765625 99.806640625 71.0009765625 Q 97.70703125 71.0009765625 96.3154296875 70.25634765625 Q 94.923828125 69.51171875 94.0693359375 68.25439453125 Q 93.21484375 66.9970703125 92.83642578125 65.34912109375 Q 92.4580078125 63.701171875 92.4580078125 61.89453125 z M 96.828125 60.0390625 L 97.51171875 60.6494140625 Q 98 61.0888671875 98.48828125 60.8447265625 Q 98.9765625 60.6005859375 99.3671875 59.95361328125 Q 99.7578125 59.306640625 100.08740234375 58.3544921875 Q 100.4169921875 57.40234375 100.67333984375 56.4013671875 Q 100.9296875 55.400390625 101.0517578125 54.4482421875 Q 101.173828125 53.49609375 101.173828125 52.861328125 L 101.173828125 52.03125 Q 101.173828125 52.03125 101.1005859375 51.15234375 Q 101.02734375 50.2734375 100.84423828125 50.45654296875 Q 100.6611328125 50.6396484375 100.2705078125 50.1025390625 Q 100.1484375 50.078125 100.05078125 50.078125 Q 99.220703125 50.078125 98.634765625 51.1279296875 Q 98 52.2998046875 97.609375 53.97216796875 Q 97.21875 55.64453125 97.0478515625 57.40234375 Q 96.876953125 59.16015625 96.828125 60.0390625 z M 112.86010742188 54.5947265625 Q 112.86010742188 53.59375 113.44604492188 52.87353515625 Q 114.03198242188 52.1533203125 114.87426757813 51.70166015625 Q 115.71655273438 51.25 116.71752929688 51.0302734375 Q 117.71850585938 50.810546875 118.57299804688 50.810546875 Q 119.23217773438 50.810546875 120.33081054688 51.005859375 Q 121.42944335938 51.201171875 122.47924804688 51.591796875 Q 123.52905273438 51.982421875 124.29809570313 52.6171875 Q 125.06713867188 53.251953125 125.06713867188 54.1064453125 Q 125.06713867188 54.4970703125 124.77416992188 54.80224609375 Q 124.48120117188 55.107421875 124.16381835938 55.107421875 Q 123.50463867188 55.107421875 122.96752929688 54.68017578125 Q 122.43041992188 54.2529296875 121.85668945313 53.77685546875 Q 121.28295898438 53.30078125 120.59936523438 52.87353515625 Q 119.91577148438 52.4462890625 119.06127929688 52.4462890625 Q 118.20678710938 52.4462890625 117.51098632813 52.99560546875 Q 116.81518554688 53.544921875 116.81518554688 54.4482421875 Q 116.81518554688 55.9375 117.86499023438 57.36572265625 Q 118.91479492188 58.7939453125 120.17211914063 60.36865234375 Q 121.42944335938 61.943359375 122.47924804688 63.6767578125 Q 123.52905273438 65.41015625 123.52905273438 67.509765625 Q 123.52905273438 68.4130859375 123.15063476563 69.03564453125 Q 122.77221679688 69.658203125 122.14965820313 70.048828125 Q 121.52709960938 70.439453125 120.74584960938 70.64697265625 Q 119.96459960938 70.8544921875 119.23217773438 70.8544921875 Q 118.42651367188 70.8544921875 117.35229492188 70.47607421875 Q 116.27807617188 70.09765625 115.32592773438 69.47509765625 Q 114.37377929688 68.8525390625 113.72680664063 68.0224609375 Q 113.07983398438 67.1923828125 113.07983398438 66.2890625 Q 113.07983398438 65.849609375 113.70239257813 65.7275390625 Q 114.32495117188 65.60546875 114.61791992188 65.60546875 Q 114.76440429688 65.60546875 115.06958007813 65.703125 Q 115.37475585938 65.80078125 115.66772460938 65.9228515625 Q 115.96069335938 66.044921875 116.19262695313 66.19140625 Q 116.42456054688 66.337890625 116.37573242188 66.5087890625 Q 116.61987304688 66.8017578125 117.12036132813 67.37548828125 Q 117.62084960938 67.94921875 118.12133789063 68.30322265625 Q 118.62182617188 68.6572265625 119.00024414063 68.5595703125 Q 119.37866210938 68.4619140625 119.37866210938 67.4609375 Q 119.37866210938 65.556640625 118.35327148438 63.95751953125 Q 117.32788085938 62.3583984375 116.11938476563 60.83251953125 Q 114.91088867188 59.306640625 113.88549804688 57.80517578125 Q 112.86010742188 56.3037109375 112.86010742188 54.5947265625 z M 139.43090820312 69.4384765625 Q 139.43090820312 69.2919921875 139.52856445312 68.40087890625 Q 139.62622070312 67.509765625 139.78491210937 66.22802734375 Q 139.94360351562 64.9462890625 140.13891601562 63.46923828125 Q 140.33422851562 61.9921875 140.48071289062 60.673828125 Q 140.62719726562 59.35546875 140.73706054687 58.3544921875 Q 140.84692382812 57.353515625 140.84692382812 57.01171875 Q 140.65161132812 56.9140625 140.37084960937 56.73095703125 Q 140.09008789062 56.5478515625 140.09008789062 56.3037109375 Q 140.09008789062 55.9619140625 140.41967773437 55.75439453125 Q 140.74926757812 55.546875 140.99340820312 55.44921875 Q 141.09106445312 54.2041015625 141.23754882812 51.982421875 Q 141.38403320312 49.7607421875 141.68920898437 47.18505859375 Q 141.99438476562 44.609375 142.54370117187 41.96044921875 Q 143.09301757812 39.3115234375 143.99633789062 37.15087890625 Q 144.89965820312 34.990234375 146.16918945312 33.623046875 Q 147.43872070312 32.255859375 149.29418945312 32.255859375 Q 151.14965820312 32.255859375 152.37036132812 33.427734375 Q 153.59106445312 34.599609375 154.36010742187 36.4794921875 Q 155.12915039062 38.359375 155.53198242187 40.654296875 Q 155.93481445312 42.94921875 156.14233398437 45.2197265625 Q 156.34985351562 47.490234375 156.39868164062 49.4677734375 Q 156.44750976562 51.4453125 156.49633789062 52.6416015625 Q 156.54516601562 53.3984375 156.86254882812 53.65478515625 Q 157.17993164062 53.9111328125 157.55834960937 54.0087890625 Q 157.93676757812 54.1064453125 158.24194335937 54.228515625 Q 158.54711914062 54.3505859375 158.54711914062 54.8388671875 Q 158.54711914062 55.400390625 157.86352539062 55.6201171875 Q 157.17993164062 55.83984375 156.78930664062 55.888671875 Q 157.03344726562 58.9404296875 157.46069335937 61.89453125 Q 157.88793945312 64.8486328125 158.59594726562 67.8515625 Q 158.69360351562 68.4130859375 158.86450195312 68.98681640625 Q 159.03540039062 69.560546875 159.03540039062 70.09765625 Q 159.03540039062 70.48828125 158.76684570312 70.74462890625 Q 158.49829101562 71.0009765625 158.07104492187 71.1474609375 Q 157.64379882812 71.2939453125 157.21655273437 71.3427734375 Q 156.78930664062 71.3916015625 156.49633789062 71.3916015625 Q 155.39770507812 71.3916015625 154.64086914062 70.9765625 Q 153.88403320312 70.5615234375 153.63989257812 69.3896484375 Q 152.98071289062 66.240234375 152.34594726562 62.7734375 Q 151.80883789062 59.7705078125 151.80883789062 56.9384765625 Q 151.80883789062 56.4990234375 151.83325195312 56.0595703125 Q 149.78247070312 56.0595703125 147.70727539062 56.1572265625 Q 145.63208007812 56.2548828125 143.72778320312 56.8896484375 Q 143.67895507812 57.548828125 143.48364257812 59.3798828125 Q 143.28833007812 61.2109375 143.04418945312 63.310546875 Q 142.80004882812 65.41015625 142.54370117187 67.32666015625 Q 142.28735351562 69.2431640625 142.23852539062 70.048828125 Q 142.18969726562 70.390625 141.73803710937 70.69580078125 Q 141.28637695312 71.0009765625 140.76147460937 71.025390625 Q 140.23657226562 71.0498046875 139.83374023437 70.69580078125 Q 139.43090820312 70.341796875 139.43090820312 69.4384765625 z M 143.99633789062 54.6435546875 Q 145.90063476562 54.2041015625 147.81713867187 54.130859375 Q 149.73364257812 54.0576171875 151.68676757812 53.9599609375 Q 151.58911132812 53.349609375 151.63793945312 52.70263671875 Q 151.68676757812 52.0556640625 151.68676757812 51.396484375 Q 151.68676757812 49.9560546875 151.61352539062 48.0517578125 Q 151.54028320312 46.1474609375 151.39379882812 44.1943359375 Q 151.24731445312 42.2412109375 151.01538085937 40.34912109375 Q 150.78344726562 38.45703125 150.49047851562 36.97998046875 Q 150.19750976562 35.5029296875 149.86791992187 34.6240234375 Q 149.53833007812 33.7451171875 149.14770507812 33.7451171875 Q 148.39086914062 33.7939453125 147.71948242187 35.05126953125 Q 147.04809570312 36.30859375 146.49877929687 38.24951171875 Q 145.94946289062 40.1904296875 145.49780273437 42.59521484375 Q 145.04614257812 45 144.74096679687 47.294921875 Q 144.43579101562 49.58984375 144.24047851562 51.5673828125 Q 144.04516601562 53.544921875 143.99633789062 54.6435546875 z M 164.056640625 61.015625 L 164.056640625 60.3076171875 Q 164.056640625 59.4287109375 164.10546875 58.6474609375 Q 164.154296875 57.548828125 164.154296875 56.8408203125 Q 164.154296875 56.4501953125 164.203125 55.94970703125 Q 164.251953125 55.44921875 164.447265625 55.15625 Q 164.69140625 54.912109375 165.02099609375 54.65576171875 Q 165.3505859375 54.3994140625 165.7412109375 54.3994140625 Q 166.986328125 54.3994140625 167.6943359375 54.68017578125 Q 168.40234375 54.9609375 168.451171875 55.83984375 L 168.548828125 56.5966796875 Q 168.98828125 55.546875 169.720703125 53.99658203125 Q 170.453125 52.4462890625 171.41748046875 51.04248046875 Q 172.3818359375 49.638671875 173.59033203125 48.64990234375 Q 174.798828125 47.6611328125 176.1416015625 47.6611328125 Q 177.38671875 47.6611328125 178.1923828125 48.8330078125 Q 178.998046875 50.0048828125 179.47412109375 51.82373046875 Q 179.9501953125 53.642578125 180.1455078125 55.87646484375 Q 180.3408203125 58.1103515625 180.4140625 60.2587890625 Q 180.4873046875 62.4072265625 180.51171875 64.17724609375 Q 180.5361328125 65.947265625 180.6826171875 66.8505859375 Q 180.7802734375 67.607421875 181.01220703125 68.44970703125 Q 181.244140625 69.2919921875 181.244140625 70 Q 181.244140625 70.1953125 180.96337890625 70.37841796875 Q 180.6826171875 70.5615234375 180.365234375 70.68359375 Q 180.0478515625 70.8056640625 179.71826171875 70.87890625 Q 179.388671875 70.9521484375 179.2421875 70.9521484375 Q 178.2900390625 70.9521484375 177.88720703125 69.52392578125 Q 177.484375 68.095703125 177.38671875 65.947265625 Q 177.2890625 63.798828125 177.2890625 61.29638671875 Q 177.2890625 58.7939453125 177.1181640625 56.6455078125 Q 176.947265625 54.4970703125 176.42236328125 53.06884765625 Q 175.8974609375 51.640625 174.75 51.591796875 Q 173.7001953125 51.591796875 172.5771484375 52.94677734375 Q 171.4541015625 54.3017578125 170.6484375 56.5478515625 Q 169.8671875 58.7939453125 169.57421875 61.650390625 Q 169.4765625 62.5537109375 169.4765625 63.45703125 Q 169.4765625 65.4345703125 169.8916015625 67.412109375 Q 169.9404296875 67.75390625 169.61083984375 67.9248046875 Q 169.28125 68.095703125 168.79296875 68.193359375 Q 168.3046875 68.291015625 167.80419921875 68.3154296875 Q 167.3037109375 68.33984375 167.03515625 68.33984375 Q 166.0830078125 68.33984375 165.50927734375 67.66845703125 Q 164.935546875 66.9970703125 164.6181640625 65.947265625 Q 164.30078125 64.8974609375 164.19091796875 63.59130859375 Q 164.0810546875 62.28515625 164.056640625 61.015625 z M 186.24096679688 55.44921875 Q 186.24096679688 54.7412109375 186.64379882813 54.521484375 Q 187.04663085938 54.3017578125 187.65698242188 54.3017578125 Q 188.65795898438 54.3017578125 189.18286132813 54.68017578125 Q 189.70776367188 55.05859375 189.70776367188 56.0107421875 Q 189.70776367188 57.158203125 189.87866210938 58.87939453125 Q 190.04956054688 60.6005859375 190.37915039063 62.22412109375 Q 190.70874023438 63.84765625 191.16040039063 65.01953125 Q 191.61206054688 66.19140625 192.10034179688 66.19140625 Q 193.00366210938 66.19140625 193.69946289063 64.7998046875 Q 194.39526367188 63.408203125 194.92016601563 61.3818359375 Q 195.44506835938 59.35546875 195.82348632813 57.02392578125 Q 196.20190429688 54.6923828125 196.34838867188 52.861328125 Q 196.44604492188 51.8603515625 196.82446289063 51.40869140625 Q 197.20288085938 50.95703125 198.20385742188 50.95703125 Q 199.35131835938 50.95703125 199.87622070313 51.9091796875 Q 200.40112304688 52.861328125 200.54760742188 54.2529296875 Q 200.66967773438 55.44921875 200.66967773438 56.7431640625 L 200.66967773438 57.158203125 L 200.66967773438 58.134765625 Q 200.66967773438 59.0625 200.69409179688 59.794921875 L 201.40209960938 74.7607421875 L 201.49975585938 77.2509765625 Q 201.54858398438 77.5927734375 201.57299804688 77.89794921875 Q 201.59741210938 78.203125 201.59741210938 78.544921875 Q 201.59741210938 79.9365234375 200.99926757813 80.33935546875 Q 200.40112304688 80.7421875 199.05834960938 80.7421875 Q 198.76538085938 80.7421875 198.31372070313 80.693359375 Q 197.86206054688 80.64453125 197.43481445313 80.498046875 Q 197.00756835938 80.3515625 196.70239257813 80.09521484375 Q 196.39721679688 79.8388671875 196.39721679688 79.4482421875 L 196.49487304688 79.2041015625 Q 196.61694335938 77.7392578125 196.61694335938 76.1279296875 L 196.61694335938 75.615234375 Q 196.59252929688 73.7109375 196.49487304688 71.7578125 Q 196.39721679688 69.8046875 196.27514648438 67.8515625 Q 196.15307617188 65.8984375 196.15307617188 64.091796875 Q 195.81127929688 64.8486328125 195.35961914063 65.654296875 Q 194.90795898438 66.4599609375 194.30981445313 67.10693359375 Q 193.71166992188 67.75390625 192.95483398438 68.18115234375 Q 192.19799804688 68.6083984375 191.24584960938 68.6083984375 Q 189.85424804688 68.6083984375 188.95092773438 67.8759765625 Q 188.04760742188 67.1435546875 187.54711914063 65.9716796875 Q 187.04663085938 64.7998046875 186.82690429688 63.34716796875 Q 186.60717773438 61.89453125 186.53393554688 60.44189453125 Q 186.46069335938 58.9892578125 186.43627929688 57.6708984375 Q 186.41186523438 56.3525390625 186.24096679688 55.44921875 z M 205.59326171875 45.390625 Q 205.59326171875 45.048828125 206.32568359375 44.8046875 Q 207.05810546875 44.560546875 207.98583984375 44.40185546875 Q 208.91357421875 44.2431640625 209.7802734375 44.169921875 Q 210.64697265625 44.0966796875 210.96435546875 44.0478515625 Q 210.96435546875 43.388671875 211.01318359375 42.71728515625 Q 211.06201171875 42.0458984375 211.28173828125 41.52099609375 Q 211.50146484375 40.99609375 211.9775390625 40.6787109375 Q 212.45361328125 40.361328125 213.30810546875 40.361328125 Q 214.01611328125 40.361328125 214.38232421875 40.5322265625 Q 214.74853515625 40.703125 215.16357421875 41.240234375 Q 215.26123046875 41.533203125 215.26123046875 41.8017578125 L 215.26123046875 42.61962890625 Q 215.26123046875 42.61962890625 215.21240234375 43.4619140625 Q 216.11572265625 43.3642578125 217.0068359375 43.22998046875 Q 217.89794921875 43.095703125 218.80126953125 43.095703125 Q 219.46044921875 43.095703125 219.70458984375 43.1201171875 Q 219.94873046875 43.14453125 220.19287109375 43.7060546875 Q 220.38818359375 44.267578125 219.716796875 44.560546875 Q 219.04541015625 44.853515625 218.10546875 45 Q 217.16552734375 45.146484375 216.23779296875 45.2197265625 Q 215.31005859375 45.29296875 215.11474609375 45.29296875 Q 214.82177734375 49.4921875 214.5166015625 53.6181640625 Q 214.21142578125 57.744140625 214.21142578125 61.9921875 Q 214.21142578125 63.896484375 214.33349609375 65.9228515625 Q 214.45556640625 67.94921875 215.01708984375 69.755859375 Q 215.16357421875 70.3173828125 215.50537109375 70.8056640625 Q 215.84716796875 71.2939453125 215.84716796875 71.85546875 Q 215.84716796875 72.197265625 215.57861328125 72.392578125 Q 215.31005859375 72.587890625 214.931640625 72.72216796875 Q 214.55322265625 72.8564453125 214.1748046875 72.880859375 Q 213.79638671875 72.9052734375 213.55224609375 72.9052734375 Q 212.01416015625 72.9052734375 211.20849609375 71.7578125 Q 210.40283203125 70.6103515625 210.048828125 69.01123046875 Q 209.69482421875 67.412109375 209.67041015625 65.7275390625 Q 209.64599609375 64.04296875 209.64599609375 62.9931640625 Q 209.64599609375 60.8447265625 209.7314453125 58.5986328125 Q 209.81689453125 56.3525390625 209.93896484375 54.1552734375 Q 210.06103515625 51.9580078125 210.28076171875 49.8583984375 Q 210.50048828125 47.7587890625 210.79345703125 45.9521484375 Q 209.93896484375 46.0498046875 209.12109375 46.171875 Q 208.30322265625 46.2939453125 207.44873046875 46.2939453125 Q 207.25341796875 46.2939453125 206.923828125 46.26953125 Q 206.59423828125 46.2451171875 206.30126953125 46.1474609375 Q 206.00830078125 46.0498046875 205.80078125 45.87890625 Q 205.59326171875 45.7080078125 205.59326171875 45.390625 z M 224.26196289062 60.3076171875 Q 224.26196289062 58.0615234375 224.78686523437 55.90087890625 Q 225.31176757812 53.740234375 225.67797851562 51.591796875 Q 225.77563476562 51.0302734375 226.44702148437 50.89599609375 Q 227.11840820312 50.76171875 227.58227539062 50.76171875 Q 228.38793945312 50.76171875 228.87622070312 51.005859375 Q 229.07153320312 51.103515625 229.24243164062 51.2255859375 Q 229.41333007812 51.34765625 229.41333007812 51.54296875 Q 229.41333007812 53.642578125 228.91284179687 55.64453125 Q 228.41235351562 57.646484375 228.41235351562 59.892578125 Q 228.41235351562 60.6494140625 228.52221679687 61.32080078125 Q 228.63208007812 61.9921875 228.72973632812 62.6513671875 L 228.87622070312 63.359375 Q 228.87622070312 63.5546875 228.90063476562 63.701171875 Q 228.92504882812 63.84765625 228.97387695312 64.04296875 Q 228.97387695312 64.482421875 228.35131835937 64.64111328125 Q 227.72875976562 64.7998046875 227.26489257812 64.7998046875 Q 226.55688476562 64.7998046875 225.95874023437 64.51904296875 Q 225.36059570312 64.23828125 225.01879882812 63.5546875 L 224.67700195312 62.8466796875 Q 224.38403320312 62.28515625 224.38403320312 61.58935546875 Q 224.38403320312 60.8935546875 224.26196289062 60.3076171875 z M 225.82446289062 45.6103515625 L 225.82446289062 45.146484375 Q 225.82446289062 43.9990234375 226.39819335937 43.095703125 Q 226.97192382812 42.1923828125 228.11938476562 42.1923828125 Q 228.26586914062 42.1923828125 228.40014648437 42.216796875 Q 228.53442382812 42.2412109375 228.68090820312 42.2412109375 Q 228.97387695312 42.2900390625 229.44995117187 42.47314453125 Q 229.92602539062 42.65625 229.92602539062 43.046875 L 229.92602539062 43.095703125 Q 229.82836914062 43.291015625 229.80395507812 43.49853515625 Q 229.77954101562 43.7060546875 229.68188476562 43.8525390625 L 229.73071289062 43.8037109375 Q 229.43774414062 44.560546875 229.25463867187 45.0244140625 Q 229.07153320312 45.48828125 228.85180664062 45.76904296875 Q 228.63208007812 46.0498046875 228.30249023437 46.171875 Q 227.97290039062 46.2939453125 227.36254882812 46.2939453125 Q 227.26489257812 46.2939453125 227.02075195312 46.26953125 Q 226.77661132812 46.2451171875 226.49584960937 46.171875 Q 226.21508789062 46.0986328125 226.01977539062 45.9765625 Q 225.82446289062 45.8544921875 225.82446289062 45.6103515625 z M 234.98388671875 54.77783203125 Q 234.9228515625 53.9599609375 235.08154296875 53.2763671875 Q 235.240234375 52.5927734375 235.71630859375 52.16552734375 Q 236.1923828125 51.73828125 237.2421875 51.73828125 Q 237.486328125 51.73828125 237.84033203125 51.79931640625 Q 238.1943359375 51.8603515625 238.5361328125 51.9580078125 Q 238.8779296875 52.0556640625 239.10986328125 52.2509765625 Q 239.341796875 52.4462890625 239.341796875 52.7880859375 L 239.341796875 55.546875 Q 240.2939453125 54.4482421875 241.4169921875 53.97216796875 Q 242.5400390625 53.49609375 243.98046875 53.49609375 Q 245.0791015625 53.49609375 246.1533203125 53.99658203125 Q 247.2275390625 54.4970703125 248.1796875 55.3271484375 Q 249.1318359375 56.1572265625 249.82763671875 57.158203125 Q 250.5234375 58.1591796875 250.8408203125 59.16015625 Q 251.0361328125 58.2568359375 251.2802734375 56.95068359375 Q 251.5244140625 55.64453125 252.00048828125 54.4482421875 Q 252.4765625 53.251953125 253.2578125 52.3974609375 Q 254.0390625 51.54296875 255.3330078125 51.54296875 Q 256.724609375 51.54296875 257.6767578125 52.5439453125 Q 258.62890625 53.544921875 259.22705078125 55.14404296875 Q 259.8251953125 56.7431640625 260.13037109375 58.720703125 Q 260.435546875 60.6982421875 260.58203125 62.626953125 Q 260.728515625 64.5556640625 260.728515625 66.22802734375 L 260.728515625 68.8525390625 Q 260.728515625 69.1455078125 260.5087890625 69.32861328125 Q 260.2890625 69.51171875 259.95947265625 69.609375 Q 259.6298828125 69.70703125 259.27587890625 69.7314453125 Q 258.921875 69.755859375 258.7265625 69.755859375 Q 257.9697265625 69.755859375 257.34716796875 69.52392578125 Q 256.724609375 69.2919921875 256.724609375 68.33984375 L 256.724609375 66.142578125 Q 256.724609375 66.142578125 256.67578125 63.29833984375 Q 256.626953125 60.4541015625 256.5048828125 60.24658203125 Q 256.3828125 60.0390625 256.1875 57.4755859375 Q 255.9921875 54.912109375 255.68701171875 55.4736328125 Q 255.3818359375 56.03515625 254.9423828125 54.6923828125 Q 254.33203125 54.6923828125 254.0634765625 55.3759765625 Q 253.794921875 56.0595703125 253.61181640625 57.109375 Q 253.4287109375 58.1591796875 253.3310546875 59.3310546875 Q 253.2333984375 60.5029296875 253.0625 61.552734375 Q 252.8916015625 62.6025390625 252.51318359375 63.27392578125 Q 252.134765625 63.9453125 251.4755859375 63.9453125 Q 250.767578125 63.9453125 250.23046875 63.27392578125 Q 249.693359375 62.6025390625 249.16845703125 61.6015625 Q 248.6435546875 60.6005859375 248.11865234375 59.453125 Q 247.59375 58.3056640625 246.958984375 57.3046875 Q 246.32421875 56.279296875 245.591796875 55.64453125 Q 244.9326171875 55.0341796875 244.1025390625 55.05859375 L 243.98046875 55.05859375 Q 242.8818359375 55.107421875 242.25927734375 55.85205078125 Q 241.63671875 56.5966796875 241.30712890625 57.6708984375 Q 240.9775390625 58.7451171875 240.904296875 59.97802734375 Q 240.8310546875 61.2109375 240.8310546875 62.138671875 Q 240.8310546875 63.017578125 240.9775390625 64.189453125 Q 241.0751953125 64.970703125 241.0751953125 65.6787109375 Q 241.0751953125 66.044921875 241.05078125 66.38671875 Q 240.9775390625 67.412109375 240.50146484375 68.10791015625 Q 240.025390625 68.8037109375 238.7314453125 68.8037109375 Q 238.2431640625 68.8037109375 237.5107421875 68.7060546875 Q 236.7783203125 68.6083984375 236.5341796875 68.046875 Q 235.97265625 67.0458984375 235.6796875 65.52001953125 Q 235.38671875 63.994140625 235.240234375 62.37060546875 Q 235.09375 60.7470703125 235.0693359375 59.14794921875 Q 235.044921875 57.548828125 235.044921875 56.4013671875 Q 235.044921875 55.595703125 234.98388671875 54.77783203125 z M 265.77416992188 61.89453125 Q 265.77416992188 60.185546875 266.15258789063 57.8662109375 Q 266.53100585938 55.546875 267.43432617188 53.4716796875 Q 268.33764648438 51.396484375 269.81469726563 49.94384765625 Q 271.29174804688 48.4912109375 273.53784179688 48.4912109375 Q 275.63745117188 48.4912109375 276.68725585938 49.69970703125 Q 277.73706054688 50.908203125 277.73706054688 52.958984375 Q 277.73706054688 54.3017578125 277.23657226563 55.90087890625 Q 276.73608398438 57.5 275.80834960938 58.92822265625 Q 274.88061523438 60.3564453125 273.61108398438 61.30859375 Q 272.34155273438 62.2607421875 270.77905273438 62.2607421875 L 270.14428710938 62.2119140625 Q 270.14428710938 62.87109375 270.33959960938 63.98193359375 Q 270.53491210938 65.0927734375 270.91333007813 66.19140625 Q 271.29174804688 67.2900390625 271.88989257813 68.1201171875 Q 272.48803710938 68.9501953125 273.34252929688 68.9501953125 Q 274.58764648438 68.9501953125 275.73510742188 67.94921875 Q 276.88256835938 66.9482421875 277.90795898438 65.7275390625 Q 278.93334960938 64.5068359375 279.81225585938 63.505859375 Q 280.69116210938 62.5048828125 281.42358398438 62.5048828125 Q 281.81420898438 62.5048828125 282.22924804688 62.626953125 Q 282.64428710938 62.7490234375 282.69311523438 63.310546875 Q 282.69311523438 63.65234375 282.51000976563 63.8720703125 Q 282.32690429688 64.091796875 282.18041992188 64.3603515625 Q 281.42358398438 65.654296875 280.53247070313 66.826171875 Q 279.64135742188 67.998046875 278.51831054688 68.9501953125 Q 277.39526367188 69.90234375 276.06469726563 70.45166015625 Q 274.73413085938 71.0009765625 273.12280273438 71.0009765625 Q 271.02319335938 71.0009765625 269.63159179688 70.25634765625 Q 268.23999023438 69.51171875 267.38549804688 68.25439453125 Q 266.53100585938 66.9970703125 266.15258789063 65.34912109375 Q 265.77416992188 63.701171875 265.77416992188 61.89453125 z M 270.14428710938 60.0390625 L 270.82788085938 60.6494140625 Q 271.31616210938 61.0888671875 271.80444335938 60.8447265625 Q 272.29272460938 60.6005859375 272.68334960938 59.95361328125 Q 273.07397460938 59.306640625 273.40356445313 58.3544921875 Q 273.73315429688 57.40234375 273.98950195313 56.4013671875 Q 274.24584960938 55.400390625 274.36791992188 54.4482421875 Q 274.48999023438 53.49609375 274.48999023438 52.861328125 L 274.48999023438 52.03125 Q 274.48999023438 52.03125 274.41674804688 51.15234375 Q 274.34350585938 50.2734375 274.16040039063 50.45654296875 Q 273.97729492188 50.6396484375 273.58666992188 50.1025390625 Q 273.46459960938 50.078125 273.36694335938 50.078125 Q 272.53686523438 50.078125 271.95092773438 51.1279296875 Q 271.31616210938 52.2998046875 270.92553710938 53.97216796875 Q 270.53491210938 55.64453125 270.36401367188 57.40234375 Q 270.19311523438 59.16015625 270.14428710938 60.0390625 z" stroke-linecap="round" />
</g>
		<g transform="matrix(1 0 0 1 -141.35 -40.37)"  >
<path style="stroke: none; stroke-width: 1; stroke-dasharray: none; stroke-linecap: butt; stroke-dashoffset: 0; stroke-linejoin: miter; stroke-miterlimit: 4; fill: rgb(245,245,245); fill-rule: nonzero; opacity: 1;" vector-effect="non-scaling-stroke"  transform=" translate(0, 0)" d="" stroke-linecap="round" />
</g>
</g>
</g>
<g transform="matrix(0.29 0 0 0.29 881.48 480.63)" style="" id="45696135-8d1a-410e-af0b-60e6f6d5bb4c"  >
		<text xml:space="preserve" font-family="Alegreya" font-size="152" font-style="normal" font-weight="700" style="stroke: none; stroke-width: 1; stroke-dasharray: none; stroke-linecap: butt; stroke-dashoffset: 0; stroke-linejoin: miter; stroke-miterlimit: 4; fill: rgb(236,225,225); fill-rule: nonzero; opacity: 1; white-space: pre;" ><tspan x="-107.01" y="47.75" >TM</tspan></text>
</g>
</svg>